<?xml version="1.0" encoding="utf-8"?>
<!-- Generator: Adobe Illustrator 15.1.0, SVG Export Plug-In . SVG Version: 6.00 Build 0)  -->
<!DOCTYPE svg PUBLIC "-//W3C//DTD SVG 1.1//EN" "http://www.w3.org/Graphics/SVG/1.1/DTD/svg11.dtd">
<svg version="1.1" id="BRE_x5F_LOGO_x5F_COLOR_x5F_1"
	 xmlns="http://www.w3.org/2000/svg" xmlns:xlink="http://www.w3.org/1999/xlink" x="0px" y="0px" width="158.304px"
	 height="139.128px" viewBox="322.944 294.716 158.304 139.128" enable-background="new 322.944 294.716 158.304 139.128"
	 xml:space="preserve">
<g id="XMLID_1_">
	<g id="XMLID_2_">
		<path id="XMLID_6_" fill="#E15829" d="M405.156,355.712c8.567,0.408,16.728,0.612,24.275,0.612
			c-1.632-31.62-13.668-42.229-32.027-42.229h-27.948c-0.816,0-1.428,0.816-1.428,1.632v37.536c4.284,0.408,8.771,0.816,13.26,1.02
			V327.56h17.952c7.344,0,14.076,5.712,14.076,16.728C413.316,350.408,410.868,354.284,405.156,355.712z"/>
		<path id="XMLID_3_" fill="#E15829" d="M481.248,362.036H337.836l12.444,11.832c5.1-0.816,11.22-1.632,17.748-2.244v40.188
			c0,0.816,0.611,1.633,1.428,1.633h27.948c18.972,0,31.008-11.017,32.231-44.676c9.588-0.204,17.952-0.204,23.664-0.204
			c-2.448,31.417-28.764,56.508-60.792,56.508c-33.66,0-60.996-27.336-60.996-60.996s27.336-60.996,60.996-60.996
			c31.212,0,56.916,23.46,60.588,53.856c4.896,0,7.956,0,8.568,0c-3.672-34.884-33.252-62.22-69.156-62.22
			c-38.352,0-69.563,31.212-69.563,69.564s31.212,69.564,69.563,69.564c36.72,0,66.912-28.764,69.36-64.872h8.364L481.248,362.036z
			 M400.464,369.788c9.792,0,13.464,4.488,13.464,12.444c0,11.628-6.731,17.748-14.279,17.748h-18.36v-29.375
			c4.896-0.408,9.792-0.612,14.892-0.816C398.424,369.788,399.852,369.788,400.464,369.788z"/>
	</g>
</g>
</svg>
