<?xml version="1.0" standalone="no"?>
<!DOCTYPE svg PUBLIC "-//W3C//DTD SVG 20010904//EN"
 "http://www.w3.org/TR/2001/REC-SVG-20010904/DTD/svg10.dtd">
<svg version="1.0" xmlns="http://www.w3.org/2000/svg"
 width="1084.000000pt" height="1084.000000pt" viewBox="0 0 1084.000000 1084.000000"
 preserveAspectRatio="xMidYMid meet">
<metadata>
Created by potrace 1.11, written by Peter Selinger 2001-2013
</metadata>
<g transform="translate(0.000000,1084.000000) scale(0.100000,-0.100000)"
fill="#000000" stroke="none">
<path d="M0 5425 l0 -5415 5415 0 5415 0 0 5415 0 5415 -5415 0 -5415 0 0
-5415z m4660 2695 l0 -610 -895 0 -895 0 0 -620 0 -620 850 0 850 0 0 -600 0
-600 -840 0 -840 0 0 -770 0 -770 912 0 911 0 -6 -218 c-4 -119 -7 -394 -7
-609 l0 -393 -1580 0 -1580 0 0 3210 0 3210 1560 0 1560 0 0 -610z m4260
-1430 l0 -2040 -366 0 c-345 0 -366 -1 -359 -17 4 -10 194 -531 422 -1158 229
-627 418 -1146 420 -1152 4 -10 -134 -13 -673 -13 l-679 0 -260 757 c-143 416
-321 936 -396 1157 l-137 401 -176 3 -176 2 0 -1160 0 -1160 -675 0 -675 0 0
2759 0 2759 487 451 486 451 1379 0 1378 0 0 -2040z"/>
<path d="M6540 6675 l0 -835 515 0 515 0 0 835 0 835 -515 0 -515 0 0 -835z"/>
</g>
</svg>
